<svg width="16" height="16" viewBox="0 0 16 16" fill="none" xmlns="http://www.w3.org/2000/svg">
<g clip-path="url(#clip0_7743_1998)">
<path d="M13.5385 2.59719L9.90178 0.512767C8.71189 -0.170922 7.25386 -0.170922 6.06398 0.512767L2.41052 2.59719C1.23739 3.28088 0.5 4.5482 0.5 5.89891V10.0844C0.5 11.4518 1.23739 12.7024 2.41052 13.3861L6.04722 15.4872C7.2371 16.1709 8.69513 16.1709 9.88502 15.4872L13.5217 13.3861C14.7116 12.7024 15.4322 11.4518 15.4322 10.0844V5.89891C15.4658 4.5482 14.7284 3.28088 13.5385 2.59719ZM7.9745 11.7186C5.91315 11.7186 4.23725 10.0511 4.23725 8C4.23725 5.94893 5.91315 4.2814 7.9745 4.2814C10.0359 4.2814 11.7285 5.94893 11.7285 8C11.7285 10.0511 10.0526 11.7186 7.9745 11.7186Z" fill="white"/>
</g>
<defs>
<clipPath id="clip0_7743_1998">
<rect width="16" height="16" fill="white"/>
</clipPath>
</defs>
</svg>

